<svg width="54" height="54" viewBox="0 0 54 54" fill="none" xmlns="http://www.w3.org/2000/svg">
<path d="M52 29.2523C51.5621 33.9907 49.7838 38.5063 46.8731 42.271C43.9625 46.0356 40.0399 48.8934 35.5643 50.51C31.0887 52.1266 26.2453 52.4351 21.6008 51.3995C16.9563 50.3639 12.7027 48.0269 9.3379 44.6621C5.97307 41.2973 3.63612 37.0437 2.6005 32.3992C1.56489 27.7547 1.87343 22.9113 3.49004 18.4357C5.10664 13.9601 7.96445 10.0375 11.7291 7.12686C15.4937 4.2162 20.0093 2.43789 24.7477 2C21.9736 5.75315 20.6386 10.3774 20.9857 15.0316C21.3328 19.6858 23.3388 24.0609 26.639 27.361C29.9392 30.6612 34.3142 32.6672 38.9684 33.0143C43.6226 33.3614 48.2469 32.0264 52 29.2523Z" stroke="#FAFAFA" stroke-width="4" stroke-linecap="round" stroke-linejoin="round"/>
</svg>
