<svg width="30" height="32" viewBox="0 0 30 32" fill="none" xmlns="http://www.w3.org/2000/svg">
<path d="M11.0513 26.7197C3.87179 28.8599 3.87179 23.1529 1 22.4395M21.1026 31V25.4785C21.1564 24.7981 21.0639 24.1142 20.8312 23.4722C20.5985 22.8301 20.2309 22.2446 19.7528 21.7547C24.2615 21.2553 29 19.5575 29 11.7674C28.9996 9.7754 28.2285 7.85981 26.8462 6.41708C27.5007 4.67431 27.4544 2.74797 26.7169 1.03823C26.7169 1.03823 25.0226 0.538864 21.1026 3.14982C17.8115 2.26355 14.3423 2.26355 11.0513 3.14982C7.13128 0.538864 5.43692 1.03823 5.43692 1.03823C4.69941 2.74797 4.65313 4.67431 5.30769 6.41708C3.91505 7.87051 3.14311 9.80342 3.15385 11.8102C3.15385 19.5432 7.89231 21.241 12.401 21.7975C11.9286 22.2825 11.5643 22.861 11.3317 23.4952C11.0992 24.1294 11.0036 24.8051 11.0513 25.4785V31" stroke="#FAFAFA" stroke-width="2" stroke-linecap="round" stroke-linejoin="round"/>
</svg>
