<svg width="42" height="46" viewBox="0 0 42 46" fill="none" xmlns="http://www.w3.org/2000/svg">
<path d="M9.27349 18C9.13549 18 9.01549 17.961 8.91349 17.883L7.48249 16.569L5.97949 14.643C5.91349 14.565 5.87149 14.514 5.85349 14.49C5.83549 14.466 5.82649 14.412 5.82649 14.328V9.666C5.82649 9.582 5.83549 9.528 5.85349 9.504C5.87749 9.48 5.91949 9.429 5.97949 9.351L7.35649 7.596L8.91349 6.12C8.97949 6.066 9.03049 6.033 9.06649 6.021C9.10849 6.009 9.17749 6.003 9.27349 6.003H11.5145C11.6645 6.003 11.7395 6.078 11.7395 6.228V7.74C11.7395 7.788 11.7335 7.839 11.7215 7.893C11.7155 7.941 11.6855 7.983 11.6315 8.019L9.97549 9.18L8.88649 10.575V13.446L10.0025 14.841L11.6315 15.984C11.6795 16.014 11.7095 16.05 11.7215 16.092C11.7335 16.134 11.7395 16.179 11.7395 16.227V17.775C11.7395 17.925 11.6645 18 11.5145 18H9.27349ZM15.6629 18C15.5249 18 15.4049 17.949 15.3029 17.847L13.5029 16.047C13.4009 15.951 13.3499 15.831 13.3499 15.687V10.413C13.3499 10.269 13.4009 10.149 13.5029 10.053L15.3029 8.253C15.4049 8.151 15.5249 8.1 15.6629 8.1H18.3899C18.5339 8.1 18.6539 8.151 18.7499 8.253L20.5499 10.053C20.6519 10.149 20.7029 10.269 20.7029 10.413V15.687C20.7029 15.831 20.6519 15.951 20.5499 16.047L18.7499 17.847C18.6539 17.949 18.5339 18 18.3899 18H15.6629ZM16.7339 15.84H17.3279C17.5139 15.84 17.6429 15.801 17.7149 15.723C17.7869 15.645 17.8229 15.51 17.8229 15.318V10.782C17.8229 10.59 17.7869 10.455 17.7149 10.377C17.6429 10.299 17.5139 10.26 17.3279 10.26H16.7339C16.5419 10.26 16.4099 10.299 16.3379 10.377C16.2659 10.455 16.2299 10.59 16.2299 10.782V15.318C16.2299 15.51 16.2659 15.645 16.3379 15.723C16.4099 15.801 16.5419 15.84 16.7339 15.84ZM22.9368 18C22.7868 18 22.7118 17.925 22.7118 17.775V8.325C22.7118 8.175 22.7868 8.1 22.9368 8.1H24.3678C24.4818 8.1 24.5808 8.151 24.6648 8.253L25.5198 9.234L26.4648 8.208C26.5308 8.136 26.6148 8.1 26.7168 8.1H27.6708C27.8208 8.1 27.8958 8.175 27.8958 8.325V10.341C27.8958 10.437 27.8898 10.503 27.8778 10.539C27.8658 10.569 27.8328 10.602 27.7788 10.638L25.5918 12.24V17.775C25.5918 17.925 25.5168 18 25.3668 18H22.9368ZM32.9394 18C32.8794 18 32.8164 17.991 32.7504 17.973C32.6844 17.955 32.6214 17.94 32.5614 17.928L30.9504 17.505L29.1324 16.884C28.9584 16.824 28.8714 16.653 28.8714 16.371V10.413C28.8714 10.269 28.9224 10.149 29.0244 10.053L30.8244 8.253C30.9264 8.151 31.0464 8.1 31.1844 8.1H34.0554C34.1934 8.1 34.3134 8.151 34.4154 8.253L36.2154 10.053C36.3174 10.149 36.3684 10.269 36.3684 10.413V14.103H31.5984L31.5354 15.237L32.7774 15.66L35.0364 15.84C35.1324 15.858 35.1804 15.93 35.1804 16.056V17.775C35.1804 17.925 35.1054 18 34.9554 18H32.9394ZM32.6154 12.672H32.7684C33.0624 12.672 33.2934 12.564 33.4614 12.348C33.6354 12.132 33.7224 11.838 33.7224 11.466V11.295C33.7224 10.935 33.6354 10.647 33.4614 10.431C33.2934 10.215 33.0624 10.107 32.7684 10.107H32.6064C32.3184 10.107 32.0904 10.215 31.9224 10.431C31.7604 10.647 31.6794 10.935 31.6794 11.295V11.466C31.6794 11.838 31.7604 12.132 31.9224 12.348C32.0904 12.564 32.3214 12.672 32.6154 12.672ZM1.25702 41C1.10702 41 1.03202 40.925 1.03202 40.775V39.029C1.03202 38.951 1.03502 38.888 1.04102 38.84C1.05302 38.792 1.08902 38.753 1.14902 38.723L3.47102 37.634V36.113L1.18502 34.709C1.08302 34.649 1.03202 34.559 1.03202 34.439V31.082C1.03202 30.986 1.03802 30.917 1.05002 30.875C1.06202 30.827 1.10702 30.776 1.18502 30.722L3.55202 29.12C3.61202 29.084 3.66602 29.057 3.71402 29.039C3.76802 29.015 3.83402 29.003 3.91202 29.003H6.38702C6.53702 29.003 6.61202 29.078 6.61202 29.228V30.839C6.61202 30.971 6.56702 31.061 6.47702 31.109L4.11902 32.081V33.665L6.47702 35.015C6.56702 35.057 6.61202 35.153 6.61202 35.303V39.218C6.61202 39.266 6.60302 39.317 6.58502 39.371C6.57302 39.425 6.54302 39.464 6.49502 39.488L3.66902 40.892C3.63302 40.91 3.58802 40.934 3.53402 40.964C3.48602 40.988 3.43802 41 3.39002 41H1.25702ZM8.66332 43.7C8.51332 43.7 8.43832 43.625 8.43832 43.475V31.325C8.43832 31.175 8.51332 31.1 8.66332 31.1H10.5533C10.6613 31.1 10.7663 31.151 10.8683 31.253L11.3183 31.703L11.7683 31.253C11.8643 31.151 11.9843 31.1 12.1283 31.1H13.4783C13.6163 31.1 13.7363 31.151 13.8383 31.253L15.6383 33.053C15.7403 33.149 15.7913 33.269 15.7913 33.413V38.687C15.7913 38.831 15.7403 38.951 15.6383 39.047L13.8383 40.847C13.7363 40.949 13.6163 41 13.4783 41H12.1283C11.9843 41 11.8643 40.949 11.7683 40.847L11.3183 40.397V43.475C11.3183 43.625 11.2433 43.7 11.0933 43.7H8.66332ZM11.3183 38.84H12.3983C12.5903 38.84 12.7223 38.801 12.7943 38.723C12.8663 38.645 12.9023 38.51 12.9023 38.318V33.782C12.9023 33.59 12.8663 33.455 12.7943 33.377C12.7223 33.299 12.5903 33.26 12.3983 33.26H11.8133C11.6273 33.26 11.4983 33.299 11.4263 33.377C11.3543 33.455 11.3183 33.59 11.3183 33.782V38.84ZM20.0399 41C19.9019 41 19.7819 40.949 19.6799 40.847L17.8799 39.047C17.7779 38.951 17.7269 38.831 17.7269 38.687V33.413C17.7269 33.269 17.7779 33.149 17.8799 33.053L19.6799 31.253C19.7819 31.151 19.9019 31.1 20.0399 31.1H24.8549C25.0049 31.1 25.0799 31.175 25.0799 31.325V40.775C25.0799 40.925 25.0049 41 24.8549 41H22.9559C22.8779 41 22.8179 40.985 22.7759 40.955C22.7399 40.925 22.6979 40.889 22.6499 40.847L22.1999 40.397L21.7499 40.847C21.6539 40.949 21.5339 41 21.3899 41H20.0399ZM21.1109 38.84H21.7049C21.8909 38.84 22.0199 38.801 22.0919 38.723C22.1639 38.645 22.1999 38.51 22.1999 38.318V33.26H21.1109C20.9189 33.26 20.7869 33.299 20.7149 33.377C20.6429 33.455 20.6069 33.59 20.6069 33.782V38.318C20.6069 38.51 20.6429 38.645 20.7149 38.723C20.7869 38.801 20.9189 38.84 21.1109 38.84ZM29.9867 41C29.8667 41 29.7467 40.961 29.6267 40.883L28.1957 39.893L27.1787 38.309C27.1367 38.231 27.1007 38.18 27.0707 38.156C27.0407 38.126 27.0257 38.066 27.0257 37.976V34.124C27.0257 34.034 27.0377 33.974 27.0617 33.944C27.0857 33.914 27.1247 33.86 27.1787 33.782L28.1057 32.288L29.6267 31.217C29.6807 31.181 29.7347 31.154 29.7887 31.136C29.8427 31.112 29.9087 31.1 29.9867 31.1H31.5797C31.7297 31.1 31.8047 31.175 31.8047 31.325V33.062C31.8047 33.11 31.7987 33.161 31.7867 33.215C31.7807 33.269 31.7537 33.311 31.7057 33.341L30.7067 33.863L29.9147 34.88V37.193L30.7427 38.129L31.7057 38.759C31.7657 38.795 31.7957 38.84 31.7957 38.894C31.8017 38.942 31.8047 38.99 31.8047 39.038V40.775C31.8047 40.925 31.7297 41 31.5797 41H29.9867ZM37.5449 41C37.4849 41 37.4219 40.991 37.3559 40.973C37.2899 40.955 37.2269 40.94 37.1669 40.928L35.5559 40.505L33.7379 39.884C33.5639 39.824 33.4769 39.653 33.4769 39.371V33.413C33.4769 33.269 33.5279 33.149 33.6299 33.053L35.4299 31.253C35.5319 31.151 35.6519 31.1 35.7899 31.1H38.6609C38.7989 31.1 38.9189 31.151 39.0209 31.253L40.8209 33.053C40.9229 33.149 40.9739 33.269 40.9739 33.413V37.103H36.2039L36.1409 38.237L37.3829 38.66L39.6419 38.84C39.7379 38.858 39.7859 38.93 39.7859 39.056V40.775C39.7859 40.925 39.7109 41 39.5609 41H37.5449ZM37.2209 35.672H37.3739C37.6679 35.672 37.8989 35.564 38.0669 35.348C38.2409 35.132 38.3279 34.838 38.3279 34.466V34.295C38.3279 33.935 38.2409 33.647 38.0669 33.431C37.8989 33.215 37.6679 33.107 37.3739 33.107H37.2119C36.9239 33.107 36.6959 33.215 36.5279 33.431C36.3659 33.647 36.2849 33.935 36.2849 34.295V34.466C36.2849 34.838 36.3659 35.132 36.5279 35.348C36.6959 35.564 36.9269 35.672 37.2209 35.672Z" fill="white"/>
<circle cx="21.5" cy="24.5" r="7.5" stroke="white" stroke-width="2"/>
<path d="M25 22L20.875 26L19 24.1818" stroke="#FAFAFA" stroke-width="2" stroke-linecap="round" stroke-linejoin="round"/>
</svg>
