<svg width="24" height="27" viewBox="0 0 24 27" fill="none" xmlns="http://www.w3.org/2000/svg">
<path d="M12.5 15C13.3284 15 14 14.3284 14 13.5C14 12.6716 13.3284 12 12.5 12C11.6716 12 11 12.6716 11 13.5C11 14.3284 11.6716 15 12.5 15Z" stroke="#FAFAFA" stroke-width="3" stroke-linecap="round" stroke-linejoin="round"/>
<path d="M12.5 4.5C13.3284 4.5 14 3.82843 14 3C14 2.17157 13.3284 1.5 12.5 1.5C11.6716 1.5 11 2.17157 11 3C11 3.82843 11.6716 4.5 12.5 4.5Z" stroke="#FAFAFA" stroke-width="3" stroke-linecap="round" stroke-linejoin="round"/>
<path d="M12.5 25.5C13.3284 25.5 14 24.8284 14 24C14 23.1716 13.3284 22.5 12.5 22.5C11.6716 22.5 11 23.1716 11 24C11 24.8284 11.6716 25.5 12.5 25.5Z" stroke="#FAFAFA" stroke-width="3" stroke-linecap="round" stroke-linejoin="round"/>
</svg>
