<svg width="29" height="32" viewBox="0 0 29 32" fill="none" xmlns="http://www.w3.org/2000/svg">
<path d="M23.5 10.0016C23.5 7.61422 22.5518 5.32463 20.864 3.63651C19.1761 1.94838 16.8869 1 14.5 1C12.1131 1 9.82387 1.94838 8.13604 3.63651C6.44821 5.32463 5.5 7.61422 5.5 10.0016C5.5 20.5035 1 23.504 1 23.504H28C28 23.504 23.5 20.5035 23.5 10.0016ZM17.095 29.5051C16.8313 29.9597 16.4528 30.3372 15.9973 30.5995C15.5419 30.8619 15.0256 31 14.5 31C13.9744 31 13.4581 30.8619 13.0027 30.5995C12.5472 30.3372 12.1687 29.9597 11.905 29.5051" fill="#FAFAFA"/>
<path d="M17.095 29.5051C16.8313 29.9597 16.4528 30.3372 15.9973 30.5995C15.5419 30.8619 15.0256 31 14.5 31C13.9744 31 13.4581 30.8619 13.0027 30.5995C12.5472 30.3372 12.1687 29.9597 11.905 29.5051M23.5 10.0016C23.5 7.61422 22.5518 5.32463 20.864 3.63651C19.1761 1.94838 16.8869 1 14.5 1C12.1131 1 9.82387 1.94838 8.13604 3.63651C6.44821 5.32463 5.5 7.61422 5.5 10.0016C5.5 20.5035 1 23.504 1 23.504H28C28 23.504 23.5 20.5035 23.5 10.0016Z" stroke="#FAFAFA" stroke-width="2" stroke-linecap="round" stroke-linejoin="round"/>
</svg>
