<svg width="53" height="54" viewBox="0 0 53 54" fill="none" xmlns="http://www.w3.org/2000/svg">
<path d="M32.3506 11.5566C34.6419 12.0119 36.7476 13.1532 38.3983 14.8344C40.0491 16.5156 41.1696 18.6602 41.6167 20.9937M32.3506 2.00012C37.111 2.53872 41.55 4.70981 44.9389 8.15693C48.3278 11.604 50.4652 16.1223 51 20.9698M48.6542 40.0351V47.2025C48.6568 47.8678 48.523 48.5265 48.2613 49.1361C47.9995 49.7458 47.6157 50.293 47.1343 50.7428C46.6528 51.1927 46.0845 51.5351 45.4656 51.7483C44.8467 51.9614 44.1909 52.0406 43.5403 51.9807C36.3217 51.1819 29.3879 48.6697 23.2957 44.6461C17.6278 40.978 12.8224 36.0839 9.22074 30.3113C5.25624 24.0786 2.78904 16.9823 2.01904 9.59756C1.96042 8.93688 2.03751 8.27102 2.24541 7.64235C2.45331 7.01368 2.78747 6.43599 3.22659 5.94606C3.66572 5.45613 4.20021 5.06468 4.79601 4.79665C5.39182 4.52862 6.0359 4.38988 6.68725 4.38925H13.7247C14.8632 4.37784 15.9669 4.78842 16.8301 5.54447C17.6933 6.30053 18.2571 7.35045 18.4164 8.49856C18.7134 10.7923 19.2643 13.0444 20.0585 15.212C20.3741 16.0671 20.4424 16.9965 20.2553 17.8899C20.0682 18.7834 19.6336 19.6035 19.0029 20.2531L16.0237 23.2873C19.3631 29.2686 24.2257 34.221 30.0986 37.6221L33.0778 34.5879C33.7157 33.9455 34.5209 33.5028 35.3982 33.3123C36.2754 33.1217 37.1879 33.1913 38.0276 33.5128C40.1559 34.3216 42.3672 34.8826 44.6193 35.1851C45.7589 35.3489 46.7996 35.9334 47.5435 36.8277C48.2874 37.7219 48.6827 38.8634 48.6542 40.0351Z" stroke="#FAFAFA" stroke-width="4" stroke-linecap="round" stroke-linejoin="round"/>
</svg>
