<svg width="34" height="32" viewBox="0 0 34 32" fill="none" xmlns="http://www.w3.org/2000/svg">
<path d="M12.9681 1.83333V30.1667M5.78723 7.66667H8.18085M5.78723 14.3333H8.18085M1 16C1 9.75 1 6.625 2.52394 4.435C3.01552 3.72779 3.61056 3.10574 4.28723 2.59167C6.38564 1 9.37926 1 15.3617 1H18.5532C24.5372 1 27.5293 1 29.6261 2.59167C30.3033 3.1056 30.8989 3.72766 31.391 4.435C32.9149 6.625 32.9149 9.75167 32.9149 16C32.9149 22.2483 32.9149 25.375 31.391 27.565C30.8989 28.2723 30.3033 28.8944 29.6261 29.4083C27.5293 31 24.5356 31 18.5532 31H15.3617C9.37766 31 6.38564 31 4.28883 29.4083C3.61159 28.8944 3.016 28.2723 2.52394 27.565C1 25.375 1 22.2483 1 16Z" stroke="#FAFAFA" stroke-width="2" stroke-linecap="round" stroke-linejoin="round"/>
<path d="M21.7447 19.3334L23.7011 17.5717C24.5245 16.83 24.9362 16.46 24.9362 16C24.9362 15.54 24.5245 15.17 23.7011 14.4284L21.7447 12.6667" stroke="#FAFAFA" stroke-width="2" stroke-linecap="round" stroke-linejoin="round"/>
</svg>
