<svg width="42" height="40" viewBox="0 0 42 40" fill="none" stroke="#FBFAF8" xmlns="http://www.w3.org/2000/svg">
    <path
        d="M16 2.04444V37.5556M7 9.35556H10M7 17.7111H10M1 19.8C1 11.9667 1 8.05 2.91 5.3052C3.52612 4.41883 4.2719 3.63919 5.12 2.99489C7.75 1 11.502 1 19 1H23C30.5 1 34.25 1 36.878 2.99489C37.7268 3.63902 38.4733 4.41867 39.09 5.3052C41 8.05 41 11.9688 41 19.8C41 27.6312 41 31.55 39.09 34.2948C38.4733 35.1813 37.7268 35.961 36.878 36.6051C34.25 38.6 30.498 38.6 23 38.6H19C11.5 38.6 7.75 38.6 5.122 36.6051C4.27319 35.961 3.52673 35.1813 2.91 34.2948C1 31.55 1 27.6312 1 19.8Z"
         stroke-width="2" stroke-linecap="round" stroke-linejoin="round" />
    <path
        d="M31 15.6222L28.548 17.8302C27.516 18.7597 27 19.2235 27 19.8C27 20.3765 27.516 20.8403 28.548 21.7698L31 23.9778"
         stroke-width="2" stroke-linecap="round" stroke-linejoin="round" />
</svg>