<svg width="49" height="54" viewBox="0 0 49 54" fill="none" xmlns="http://www.w3.org/2000/svg">
<path d="M2 12H47M42 12V47C42 48.3261 41.4732 49.5979 40.5355 50.5355C39.5979 51.4732 38.3261 52 37 52H12C10.6739 52 9.40215 51.4732 8.46447 50.5355C7.52678 49.5979 7 48.3261 7 47V12M14.5 12V7C14.5 5.67392 15.0268 4.40215 15.9645 3.46447C16.9021 2.52678 18.1739 2 19.5 2H29.5C30.8261 2 32.0979 2.52678 33.0355 3.46447C33.9732 4.40215 34.5 5.67392 34.5 7V12M19.5 24.5V39.5M29.5 24.5V39.5" stroke="#FAFAFA" stroke-width="4" stroke-linecap="round" stroke-linejoin="round"/>
</svg>
